<svg width="479" height="479" viewBox="0 0 479 479" fill="none" xmlns="http://www.w3.org/2000/svg">
<path d="M239.485 478.97C371.749 478.97 478.97 371.749 478.97 239.485C478.97 107.221 371.749 0 239.485 0C107.221 0 0 107.221 0 239.485C0 371.749 107.221 478.97 239.485 478.97Z" fill="#627EEA"/>
<path d="M246.94 59.8713V192.636L359.153 242.778L246.94 59.8713Z" fill="white" fill-opacity="0.602"/>
<path d="M246.939 59.8713L134.71 242.778L246.939 192.636V59.8713Z" fill="white"/>
<path d="M246.94 328.812V419.023L359.228 263.672L246.94 328.812Z" fill="white" fill-opacity="0.602"/>
<path d="M246.939 419.023V328.797L134.71 263.672L246.939 419.023Z" fill="white"/>
<path d="M246.94 307.934L359.153 242.779L246.94 192.667V307.934Z" fill="white" fill-opacity="0.2"/>
<path d="M134.71 242.779L246.939 307.934V192.667L134.71 242.779Z" fill="white" fill-opacity="0.602"/>
</svg>
