<svg width="479" height="479" viewBox="0 0 479 479" fill="none" xmlns="http://www.w3.org/2000/svg">
<path d="M239.485 478.97C371.749 478.97 478.97 371.749 478.97 239.485C478.97 107.221 371.749 0 239.485 0C107.221 0 0 107.221 0 239.485C0 371.749 107.221 478.97 239.485 478.97Z" fill="#26A17B"/>
<path fill-rule="evenodd" clip-rule="evenodd" d="M268.254 260.187V260.157C266.607 260.277 258.12 260.785 239.186 260.785C224.069 260.785 213.427 260.336 209.685 260.157V260.202C151.49 257.642 108.053 247.509 108.053 235.385C108.053 223.276 151.49 213.143 209.685 210.539V250.113C213.486 250.383 224.383 251.026 239.441 251.026C257.507 251.026 266.562 250.278 268.254 250.128V210.568C326.329 213.158 369.661 223.291 369.661 235.385C369.661 247.509 326.329 257.612 268.254 260.187ZM268.254 206.452V171.039H349.289V117.035H128.649V171.039H209.685V206.437C143.826 209.461 94.2979 222.513 94.2979 238.139C94.2979 253.766 143.826 266.803 209.685 269.841V383.327H268.254V269.811C334.007 266.788 383.416 253.751 383.416 238.139C383.416 222.528 334.007 209.491 268.254 206.452Z" fill="white"/>
</svg>
