<svg width="350" height="350" viewBox="0 0 288 292" fill="none" xmlns="http://www.w3.org/2000/svg">
<path d="M143.767 291.892C223.168 291.892 287.535 226.55 287.535 145.946C287.535 65.3422 223.168 0 143.767 0C64.3669 0 0 65.3422 0 145.946C0 226.55 64.3669 291.892 143.767 291.892Z" fill="#F7931A"/>
<path d="M208.364 127.885C211.185 108.766 196.836 98.4857 177.229 91.6262L183.591 65.7208L168.064 61.7985L161.864 87.0198C157.785 85.9799 153.598 85.013 149.419 84.0461L155.664 58.6607L140.137 54.7292L133.776 80.6255C130.397 79.8411 127.072 79.0749 123.856 78.2539L123.874 78.1718L102.452 72.7444L98.319 89.583C98.319 89.583 109.847 92.2647 109.605 92.4289C115.895 94.0252 117.027 98.2485 116.838 101.605L109.596 131.114C110.027 131.223 110.584 131.387 111.213 131.634L109.569 131.223L99.4152 172.562C98.6425 174.496 96.6926 177.406 92.2898 176.302C92.4515 176.53 81.004 173.447 81.004 173.447L73.2945 191.49L93.5118 196.607C97.2677 197.565 100.952 198.568 104.573 199.508L98.1483 225.705L113.666 229.627L120.028 203.722C124.269 204.88 128.384 205.957 132.41 206.978L126.066 232.774L141.593 236.696L148.018 210.554C174.507 215.644 194.419 213.591 202.802 189.273C209.559 169.698 202.469 158.396 188.533 151.035C198.687 148.664 206.324 141.886 208.364 127.885ZM172.871 178.4C168.082 197.984 135.6 187.394 125.069 184.74L133.605 150.032C144.136 152.705 177.894 157.986 172.871 178.4ZM177.679 127.602C173.303 145.416 146.274 136.359 137.514 134.142L145.241 102.672C154.002 104.889 182.243 109.021 177.679 127.602Z" fill="white"/>
</svg>
